# xmcd
#
# Track frame offsets: 
#        150
#        18952
#        45550
#        68657
#        88482
#        104227
#        127127
#        144827
#        165512
#        182692
#
# Disc length: 2643 seconds
#
# Revision: 0
# Processed by: cddbd v1.5.1PL0 Copyright (c) Steve Scherf et al.
# Submitted via: ExactAudioCopy v0.95b2
#
DISCID=890a510a
DTITLE=J.T. Watkins - I Can't Get Over You
DYEAR=1997
DGENRE=Blues
TTITLE0=One Step From The Blues
TTITLE1=Why You Leaving Me
TTITLE2=I Can't Get Over You
TTITLE3=Knowing I Still Love You
TTITLE4=Watch Over Me
TTITLE5=So What's Going On
TTITLE6=Cold Hearted Woman
TTITLE7=Blues Come Around My Door
TTITLE8=Love To See You Smile
TTITLE9=Dream Lover
EXTD=
EXTT0=
EXTT1=
EXTT2=
EXTT3=
EXTT4=
EXTT5=
EXTT6=
EXTT7=
EXTT8=
EXTT9=
PLAYORDER=
